<svg width="512" height="512" viewBox="0 0 100 100" xmlns="http://www.w3.org/2000/svg">
    <!-- Background for maskable icon -->
    <rect width="100" height="100" rx="20" fill="#111827"/>
    
    <!-- Design elements -->
    <g fill="#34d399">
        <!-- Outer ring of beads -->
        <circle cx="50" cy="12" r="6"/>
        <circle cx="71.2" cy="19.5" r="6"/>
        <circle cx="87" cy="36.5" r="6"/>
        <circle cx="90.5" cy="58" r="6"/>
        <circle cx="80" cy="78" r="6"/>
        <circle cx="62" cy="90" r="6"/>
        <circle cx="38" cy="90" r="6"/>
        <circle cx="20" cy="78" r="6"/>
        <circle cx="9.5" cy="58" r="6"/>
        <circle cx="13" cy="36.5" r="6"/>
        <circle cx="28.8" cy="19.5" r="6"/>

        <!-- Central element -->
        <circle cx="50" cy="50" r="22" fill-opacity="0.5"/>
        <circle cx="50" cy="50" r="15" fill="#f9fafb" fill-opacity="0.9"/>
        <path d="M50 42 a 8 8 0 0 1 0 16 a 8 8 0 0 1 0 -16 M50 35 a 15 15 0 0 0 0 30 a 15 15 0 0 0 0 -30" fill-opacity="0.4"/>
    </g>
</svg>
